<svg id="Capa_1" enable-background="new 0 0 512 512" height="512" viewBox="0 0 512 512" width="512" xmlns="http://www.w3.org/2000/svg"><g><path d="m512 261.052c.021 1.71-1.38 3.111-3.101 3.111h-252.889l-.907 2.503-114.434-182.594-1.682-47.268c35.151-18.287 74.97-28.651 117.023-28.651 139.4 0 254.3 113.86 255.99 252.899z" fill="#fd7f86"/><path d="m255.104 266.666-1.463 3.997v.01l-141.091 141.518-38.651 22.391c-43.393-46.463-65.68-104.172-65.68-170.416 0-64.487 17.856-123.288 57.814-168.508 4.03-4.56 6.579-8.695 10.85-13.693 18.273-17.97 39.198-33.249 62.104-45.162z" fill="#c8effe"/><path d="m77.174 431.595c23.83 30.517 51.029 52.033 89.481 54.674l14.231-15.712 72.754-199.884z" fill="#b8eb7c"/><path d="m97.593 412.979-5.211 24.422-23.285 1.56c-43.393-46.463-69.097-108.555-69.097-174.798 0-70.993 29.536-135.629 76.885-182.195-32.04 42.734-51.017 95.831-51.017 153.349.001 69.004 27.312 131.642 71.725 177.662z" fill="#99e6fc"/><path d="m180.886 470.558-11.374 31.247c-.587 1.617-2.38 2.452-3.987 1.844-37.438-14.145-70.179-36.552-96.429-64.688l28.496-25.982c23.49 24.344 51.759 44.042 83.294 57.579z" fill="#98db7c"/><path d="m426.873 366.413c-4.127 6.897-8.639 13.488-13.5 19.754-5.839 6.418-9.715 9.804-14.567 14.849-37.089 38.565-88.012 54.905-142.796 54.905-109.234 0-190.196-82.523-190.196-191.757l31.778-13.317 158.417 13.317 169.739 98.005c1.495.854 2 2.77 1.125 4.244z" fill="#60b7ff"/><path d="m425.75 166.168-169.74 97.995h-192.619c0-55.482 19.149-106.752 54.634-143.006 34.378-35.123 84.234-56.105 137.986-56.105 70.004 0 134.99 36.913 170.862 96.861.875 1.474.37 3.39-1.123 4.255z" fill="#ffef92"/><path d="m413.366 386.162c-37.376 48.204-95.399 77.122-157.356 77.122-109.234 0-199.121-89.887-199.121-199.121l11.156-5.948 11.89 5.948c11.714 98.809 95.759 175.426 197.71 175.426 52.448 0 100.158-20.275 135.721-53.427z" fill="#26a6fe"/><path d="m78.534 240.468c0 8.015.474 15.927 1.401 23.695h-23.046c0-56.26 23.839-107.38 61.896-143.737-25.272 33.38-40.251 74.959-40.251 120.042z" fill="#fee45a"/><circle cx="256.01" cy="264.166" fill="#f5f8f9" r="142.228"/><path d="m276.375 249.935c-5.84-2.512-11.058-4.44-15.661-6.141-8.324-3.076-14.338-5.298-17.571-8.572-2.879-2.915-4.033-7.731-2.941-12.271.651-2.709 2.695-7.569 9.059-9.673 13.405-4.436 22.557 2.969 23.557 3.828l.947.808c6.57 5.607 16.609 5.075 22.144-1.557 5.289-6.337 4.649-15.585-1.26-21.138l-1.054-.991c-4.215-3.893-11.606-8.585-21.103-11.211-.902-.249-1.538-1.055-1.538-1.991v-6.307c0-8.321-6.394-15.481-14.706-15.872-8.874-.418-16.201 6.653-16.201 15.436v8.004c0 .892-.579 1.666-1.422 1.957-13.729 4.743-25.06 17.049-28.472 31.478-3.589 14.919.625 30.712 10.999 41.217 8.063 8.166 17.696 11.725 28.851 15.846 4.455 1.646 9.061 3.348 14.16 5.541 14.045 6.041 12.755 18.071 12.026 21.615-1.55 7.529-7.899 16.322-20.688 16.322-10.307 0-16.766-1.08-27.79-7.48-7.556-4.387-17.286-1.653-21.417 6.135-3.945 7.437-.914 16.68 6.386 20.874 9.605 5.518 17.739 8.469 25.666 9.97.982.186 1.701 1.029 1.701 2.029v5.822c0 8.321 6.394 15.481 14.706 15.872 8.874.418 16.201-6.653 16.201-15.436v-7.621c0-.896.585-1.675 1.435-1.956 17.146-5.672 30.274-19.858 34.071-38.297 4.901-23.792-7.191-46.393-30.085-56.24z" fill="#b8eb7c"/></g></svg>